<?xml version="1.0" encoding="UTF-8" standalone="no"?>
<!-- Generator: Adobe Illustrator 16.0.0, SVG Export Plug-In . SVG Version: 6.00 Build 0)  -->

<svg
   xmlns:dc="http://purl.org/dc/elements/1.1/"
   xmlns:cc="http://creativecommons.org/ns#"
   xmlns:rdf="http://www.w3.org/1999/02/22-rdf-syntax-ns#"
   xmlns:svg="http://www.w3.org/2000/svg"
   xmlns="http://www.w3.org/2000/svg"
   xmlns:sodipodi="http://sodipodi.sourceforge.net/DTD/sodipodi-0.dtd"
   xmlns:inkscape="http://www.inkscape.org/namespaces/inkscape"
   version="1.1"
   id="Capa_1"
   x="0px"
   y="0px"
   width="32"
   height="32"
   viewBox="0 0 5.625 5.625"
   xml:space="preserve"
   sodipodi:docname="facebook.svg"
   inkscape:version="0.92.3 (2405546, 2018-03-11)"><metadata
   id="metadata40"><rdf:RDF><cc:Work
       rdf:about=""><dc:format>image/svg+xml</dc:format><dc:type
         rdf:resource="http://purl.org/dc/dcmitype/StillImage" /><dc:title></dc:title></cc:Work></rdf:RDF></metadata><defs
   id="defs38" /><sodipodi:namedview
   pagecolor="#ffffff"
   bordercolor="#666666"
   borderopacity="1"
   objecttolerance="10"
   gridtolerance="10"
   guidetolerance="10"
   inkscape:pageopacity="0"
   inkscape:pageshadow="2"
   inkscape:window-width="1920"
   inkscape:window-height="1017"
   id="namedview36"
   showgrid="false"
   fit-margin-top="0"
   fit-margin-left="0"
   fit-margin-right="0"
   fit-margin-bottom="0"
   inkscape:zoom="10.429825"
   inkscape:cx="7.0268498"
   inkscape:cy="15.405136"
   inkscape:window-x="-8"
   inkscape:window-y="-8"
   inkscape:window-maximized="1"
   inkscape:current-layer="Capa_1" />
<g
   id="g3"
   transform="scale(0.0625)">
	<path
   id="Facebook__x28_alt_x29_"
   d="M 90,15.001 C 90,7.119 82.884,0 75,0 H 15 C 7.116,0 0,7.119 0,15.001 V 74.999 C 0,82.881 7.116,90 15.001,90 H 45 V 56 H 34 V 41 H 45 V 35.156 C 45,25.077 52.568,16 61.875,16 H 74 V 31 H 61.875 C 60.548,31 59,32.611 59,35.024 V 41 H 74 V 56 H 59 v 34 h 16 c 7.884,0 15,-7.119 15,-15.001 z"
   inkscape:connector-curvature="0"
   style="fill:#ffb039" />
</g>
<g
   id="g5"
   transform="translate(0,-84.375)">
</g>
<g
   id="g7"
   transform="translate(0,-84.375)">
</g>
<g
   id="g9"
   transform="translate(0,-84.375)">
</g>
<g
   id="g11"
   transform="translate(0,-84.375)">
</g>
<g
   id="g13"
   transform="translate(0,-84.375)">
</g>
<g
   id="g15"
   transform="translate(0,-84.375)">
</g>
<g
   id="g17"
   transform="translate(0,-84.375)">
</g>
<g
   id="g19"
   transform="translate(0,-84.375)">
</g>
<g
   id="g21"
   transform="translate(0,-84.375)">
</g>
<g
   id="g23"
   transform="translate(0,-84.375)">
</g>
<g
   id="g25"
   transform="translate(0,-84.375)">
</g>
<g
   id="g27"
   transform="translate(0,-84.375)">
</g>
<g
   id="g29"
   transform="translate(0,-84.375)">
</g>
<g
   id="g31"
   transform="translate(0,-84.375)">
</g>
<g
   id="g33"
   transform="translate(0,-84.375)">
</g>
</svg>