<?xml version="1.0" encoding="UTF-8" standalone="no"?>
<!-- Generator: Adobe Illustrator 16.0.0, SVG Export Plug-In . SVG Version: 6.00 Build 0)  -->

<svg
   xmlns:dc="http://purl.org/dc/elements/1.1/"
   xmlns:cc="http://creativecommons.org/ns#"
   xmlns:rdf="http://www.w3.org/1999/02/22-rdf-syntax-ns#"
   xmlns:svg="http://www.w3.org/2000/svg"
   xmlns="http://www.w3.org/2000/svg"
   xmlns:sodipodi="http://sodipodi.sourceforge.net/DTD/sodipodi-0.dtd"
   xmlns:inkscape="http://www.inkscape.org/namespaces/inkscape"
   version="1.1"
   id="Capa_1"
   x="0px"
   y="0px"
   width="19.992733"
   height="20"
   viewBox="0 0 0.65901827 0.65925781"
   xml:space="preserve"
   sodipodi:docname="handphone.svg"
   inkscape:version="0.92.3 (2405546, 2018-03-11)"><metadata
   id="metadata41"><rdf:RDF><cc:Work
       rdf:about=""><dc:format>image/svg+xml</dc:format><dc:type
         rdf:resource="http://purl.org/dc/dcmitype/StillImage" /><dc:title></dc:title></cc:Work></rdf:RDF></metadata><defs
   id="defs39" /><sodipodi:namedview
   pagecolor="#ffffff"
   bordercolor="#666666"
   borderopacity="1"
   objecttolerance="10"
   gridtolerance="10"
   guidetolerance="10"
   inkscape:pageopacity="0"
   inkscape:pageshadow="2"
   inkscape:window-width="1920"
   inkscape:window-height="1017"
   id="namedview37"
   showgrid="false"
   fit-margin-top="0"
   fit-margin-left="0"
   fit-margin-right="0"
   fit-margin-bottom="0"
   inkscape:zoom="7.375"
   inkscape:cx="18.577411"
   inkscape:cy="-33.0321"
   inkscape:window-x="-8"
   inkscape:window-y="-8"
   inkscape:window-maximized="1"
   inkscape:current-layer="Capa_1" />
<g
   id="g4"
   transform="matrix(0.0390627,0,0,0.0390627,-1.2686499e-4,5.8398538e-6)">
	<path
   d="M 5.301,5.587 1.404,1.688 C 1.907,1.185 2.409,0.681 2.913,0.177 3.146,-0.056 3.522,-0.06 3.756,0.17 L 6.792,3.209 C 7.024,3.441 7.024,3.823 6.789,4.057 L 6.124,4.721 5.505,5.34 C 5.429,5.417 5.36,5.499 5.301,5.587 Z m 3.206,6.351 C 7.869,11.389 7.257,10.806 6.663,10.213 6.07,9.616 5.489,9.006 4.939,8.365 4.489,7.845 4.401,7.092 4.636,6.458 l -4,-4.001 c -0.931,0.957 -0.812,3.33 0.208,5.415 0.438,0.902 1.006,1.716 1.593,2.49 0.586,0.768 1.229,1.494 1.906,2.176 0.679,0.681 1.401,1.327 2.171,1.913 0.774,0.589 1.59,1.153 2.486,1.59 2.088,1.019 4.462,1.131 5.418,0.199 l -4.001,-4.001 c -0.634,0.235 -1.388,0.148 -1.91,-0.301 z m 8.195,1.181 -3.036,-3.037 c -0.233,-0.23 -0.615,-0.23 -0.848,0.003 h -0.002 l -0.667,0.666 -0.615,0.618 c -0.076,0.076 -0.159,0.143 -0.247,0.205 l 3.896,3.898 c 0.504,-0.505 1.007,-1.007 1.512,-1.51 0.235,-0.233 0.24,-0.61 0.007,-0.843 z"
   id="path2"
   inkscape:connector-curvature="0"
   style="fill:#ffb039" />
</g>
<g
   id="g6"
   transform="translate(-0.00324772,-16.217506)">
</g>
<g
   id="g8"
   transform="translate(-0.00324772,-16.217506)">
</g>
<g
   id="g10"
   transform="translate(-0.00324772,-16.217506)">
</g>
<g
   id="g12"
   transform="translate(-0.00324772,-16.217506)">
</g>
<g
   id="g14"
   transform="translate(-0.00324772,-16.217506)">
</g>
<g
   id="g16"
   transform="translate(-0.00324772,-16.217506)">
</g>
<g
   id="g18"
   transform="translate(-0.00324772,-16.217506)">
</g>
<g
   id="g20"
   transform="translate(-0.00324772,-16.217506)">
</g>
<g
   id="g22"
   transform="translate(-0.00324772,-16.217506)">
</g>
<g
   id="g24"
   transform="translate(-0.00324772,-16.217506)">
</g>
<g
   id="g26"
   transform="translate(-0.00324772,-16.217506)">
</g>
<g
   id="g28"
   transform="translate(-0.00324772,-16.217506)">
</g>
<g
   id="g30"
   transform="translate(-0.00324772,-16.217506)">
</g>
<g
   id="g32"
   transform="translate(-0.00324772,-16.217506)">
</g>
<g
   id="g34"
   transform="translate(-0.00324772,-16.217506)">
</g>
</svg>