<?xml version="1.0" encoding="UTF-8" standalone="no"?>
<!-- Generator: Adobe Illustrator 16.0.0, SVG Export Plug-In . SVG Version: 6.00 Build 0)  -->

<svg
   xmlns:dc="http://purl.org/dc/elements/1.1/"
   xmlns:cc="http://creativecommons.org/ns#"
   xmlns:rdf="http://www.w3.org/1999/02/22-rdf-syntax-ns#"
   xmlns:svg="http://www.w3.org/2000/svg"
   xmlns="http://www.w3.org/2000/svg"
   xmlns:sodipodi="http://sodipodi.sourceforge.net/DTD/sodipodi-0.dtd"
   xmlns:inkscape="http://www.inkscape.org/namespaces/inkscape"
   version="1.1"
   id="Capa_1"
   x="0px"
   y="0px"
   width="25.56233"
   height="20.000002"
   viewBox="0 0 30.554973 23.906252"
   xml:space="preserve"
   sodipodi:docname="map.svg"
   inkscape:version="0.92.3 (2405546, 2018-03-11)"><metadata
   id="metadata41"><rdf:RDF><cc:Work
       rdf:about=""><dc:format>image/svg+xml</dc:format><dc:type
         rdf:resource="http://purl.org/dc/dcmitype/StillImage" /><dc:title></dc:title></cc:Work></rdf:RDF></metadata><defs
   id="defs39" /><sodipodi:namedview
   pagecolor="#ffffff"
   bordercolor="#666666"
   borderopacity="1"
   objecttolerance="10"
   gridtolerance="10"
   guidetolerance="10"
   inkscape:pageopacity="0"
   inkscape:pageshadow="2"
   inkscape:window-width="1920"
   inkscape:window-height="1017"
   id="namedview37"
   showgrid="false"
   fit-margin-top="0"
   fit-margin-left="0"
   fit-margin-right="0"
   fit-margin-bottom="0"
   inkscape:zoom="0.4609375"
   inkscape:cx="256.00052"
   inkscape:cy="200.2949"
   inkscape:window-x="-8"
   inkscape:window-y="-8"
   inkscape:window-maximized="1"
   inkscape:current-layer="Capa_1" />
<g
   id="g4"
   transform="matrix(0.04992644,0,0,0.04992644,3.1291011e-5,-3.3243776)">
	<path
   d="m 516.316,337.52 94.233,193.581 c 3.832,7.873 -0.196,14.314 -8.952,14.314 H 10.402 c -8.756,0 -12.785,-6.441 -8.952,-14.314 L 95.684,337.52 c 1.499,-3.079 5.528,-5.599 8.952,-5.599 h 80.801 c 2.49,0 5.853,1.559 7.483,3.442 5.482,6.335 11.066,12.524 16.634,18.65 5.288,5.815 10.604,11.706 15.878,17.735 h -95.891 c -3.425,0 -7.454,2.519 -8.952,5.599 L 58.163,505.589 h 495.67 L 491.412,377.347 c -1.498,-3.08 -5.527,-5.599 -8.953,-5.599 h -96.108 c 5.273,-6.029 10.591,-11.92 15.879,-17.735 5.585,-6.144 11.2,-12.321 16.695,-18.658 1.628,-1.878 4.984,-3.434 7.47,-3.434 h 80.971 c 3.423,0 7.451,2.518 8.95,5.599 z M 444.541,205.228 c 0,105.776 -88.058,125.614 -129.472,227.265 -3.365,8.26 -14.994,8.218 -18.36,-0.04 C 259.35,340.802 184.071,315.669 169.668,234.021 155.487,153.642 211.139,74.906 292.397,67.225 c 82.64,-7.812 152.144,56.979 152.144,138.003 z m -65.427,0 c 0,-40.436 -32.779,-73.216 -73.216,-73.216 -40.437,0 -73.216,32.78 -73.216,73.216 0,40.437 32.779,73.216 73.216,73.216 40.437,0 73.216,-32.779 73.216,-73.216 z"
   id="path2"
   inkscape:connector-curvature="0"
   style="fill:#ffb039" />
</g>
<g
   id="g6"
   transform="translate(6.2674228e-4,-521.50875)">
</g>
<g
   id="g8"
   transform="translate(6.2674228e-4,-521.50875)">
</g>
<g
   id="g10"
   transform="translate(6.2674228e-4,-521.50875)">
</g>
<g
   id="g12"
   transform="translate(6.2674228e-4,-521.50875)">
</g>
<g
   id="g14"
   transform="translate(6.2674228e-4,-521.50875)">
</g>
<g
   id="g16"
   transform="translate(6.2674228e-4,-521.50875)">
</g>
<g
   id="g18"
   transform="translate(6.2674228e-4,-521.50875)">
</g>
<g
   id="g20"
   transform="translate(6.2674228e-4,-521.50875)">
</g>
<g
   id="g22"
   transform="translate(6.2674228e-4,-521.50875)">
</g>
<g
   id="g24"
   transform="translate(6.2674228e-4,-521.50875)">
</g>
<g
   id="g26"
   transform="translate(6.2674228e-4,-521.50875)">
</g>
<g
   id="g28"
   transform="translate(6.2674228e-4,-521.50875)">
</g>
<g
   id="g30"
   transform="translate(6.2674228e-4,-521.50875)">
</g>
<g
   id="g32"
   transform="translate(6.2674228e-4,-521.50875)">
</g>
<g
   id="g34"
   transform="translate(6.2674228e-4,-521.50875)">
</g>
</svg>