<?xml version="1.0" encoding="UTF-8" standalone="no"?>
<!-- Generator: Adobe Illustrator 16.0.0, SVG Export Plug-In . SVG Version: 6.00 Build 0)  -->

<svg
   xmlns:dc="http://purl.org/dc/elements/1.1/"
   xmlns:cc="http://creativecommons.org/ns#"
   xmlns:rdf="http://www.w3.org/1999/02/22-rdf-syntax-ns#"
   xmlns:svg="http://www.w3.org/2000/svg"
   xmlns="http://www.w3.org/2000/svg"
   xmlns:sodipodi="http://sodipodi.sourceforge.net/DTD/sodipodi-0.dtd"
   xmlns:inkscape="http://www.inkscape.org/namespaces/inkscape"
   version="1.1"
   id="Capa_1"
   x="0px"
   y="0px"
   width="20"
   height="20"
   viewBox="0 0 3.7953125 3.7953125"
   xml:space="preserve"
   sodipodi:docname="clock.svg"
   inkscape:version="0.92.3 (2405546, 2018-03-11)"><metadata
   id="metadata45"><rdf:RDF><cc:Work
       rdf:about=""><dc:format>image/svg+xml</dc:format><dc:type
         rdf:resource="http://purl.org/dc/dcmitype/StillImage" /><dc:title></dc:title></cc:Work></rdf:RDF></metadata><defs
   id="defs43" /><sodipodi:namedview
   pagecolor="#ffffff"
   bordercolor="#666666"
   borderopacity="1"
   objecttolerance="10"
   gridtolerance="10"
   guidetolerance="10"
   inkscape:pageopacity="0"
   inkscape:pageshadow="2"
   inkscape:window-width="1920"
   inkscape:window-height="1017"
   id="namedview41"
   showgrid="false"
   fit-margin-top="0"
   fit-margin-left="0"
   fit-margin-right="0"
   fit-margin-bottom="0"
   inkscape:showpageshadow="false"
   inkscape:zoom="7.375"
   inkscape:cx="12.180811"
   inkscape:cy="16.336988"
   inkscape:window-x="-8"
   inkscape:window-y="-8"
   inkscape:window-maximized="1"
   inkscape:current-layer="Capa_1" />
<g
   id="g8"
   transform="scale(0.0390625)"
   style="fill:#ffb039;fill-opacity:1">
	<g
   id="g6"
   style="fill:#ffb039;fill-opacity:1">
		<path
   d="M 48.58,0 C 21.793,0 0,21.793 0,48.58 0,75.367 21.793,97.16 48.58,97.16 75.367,97.16 97.16,75.367 97.16,48.58 97.16,21.793 75.367,0 48.58,0 Z m 0,86.823 c -21.087,0 -38.244,-17.155 -38.244,-38.243 0,-21.088 17.157,-38.243 38.244,-38.243 21.087,0 38.244,17.155 38.244,38.243 0,21.088 -17.157,38.243 -38.244,38.243 z"
   id="path2"
   inkscape:connector-curvature="0"
   style="fill:#ffb039;fill-opacity:1" />
		<path
   d="M 73.898,47.08 H 52.066 V 20.83 c 0,-2.209 -1.791,-4 -4,-4 -2.209,0 -4,1.791 -4,4 v 30.25 c 0,2.209 1.791,4 4,4 h 25.832 c 2.209,0 4,-1.791 4,-4 0,-2.209 -1.791,-4 -4,-4 z"
   id="path4"
   inkscape:connector-curvature="0"
   style="fill:#ffb039;fill-opacity:1" />
	</g>
</g>
<g
   id="g10"
   transform="translate(0,-93.364688)">
</g>
<g
   id="g12"
   transform="translate(0,-93.364688)">
</g>
<g
   id="g14"
   transform="translate(0,-93.364688)">
</g>
<g
   id="g16"
   transform="translate(0,-93.364688)">
</g>
<g
   id="g18"
   transform="translate(0,-93.364688)">
</g>
<g
   id="g20"
   transform="translate(0,-93.364688)">
</g>
<g
   id="g22"
   transform="translate(0,-93.364688)">
</g>
<g
   id="g24"
   transform="translate(0,-93.364688)">
</g>
<g
   id="g26"
   transform="translate(0,-93.364688)">
</g>
<g
   id="g28"
   transform="translate(0,-93.364688)">
</g>
<g
   id="g30"
   transform="translate(0,-93.364688)">
</g>
<g
   id="g32"
   transform="translate(0,-93.364688)">
</g>
<g
   id="g34"
   transform="translate(0,-93.364688)">
</g>
<g
   id="g36"
   transform="translate(0,-93.364688)">
</g>
<g
   id="g38"
   transform="translate(0,-93.364688)">
</g>
</svg>