<?xml version="1.0" encoding="UTF-8" standalone="no"?>
<!-- Generator: Adobe Illustrator 19.0.0, SVG Export Plug-In . SVG Version: 6.00 Build 0)  -->

<svg
   xmlns:dc="http://purl.org/dc/elements/1.1/"
   xmlns:cc="http://creativecommons.org/ns#"
   xmlns:rdf="http://www.w3.org/1999/02/22-rdf-syntax-ns#"
   xmlns:svg="http://www.w3.org/2000/svg"
   xmlns="http://www.w3.org/2000/svg"
   xmlns:sodipodi="http://sodipodi.sourceforge.net/DTD/sodipodi-0.dtd"
   xmlns:inkscape="http://www.inkscape.org/namespaces/inkscape"
   version="1.1"
   id="Capa_1"
   x="0px"
   y="0px"
   viewBox="0 0 5.2377615 3.8671871"
   xml:space="preserve"
   width="13.54411"
   height="9.999999"
   sodipodi:docname="commas-close-mini.svg"
   inkscape:version="0.92.3 (2405546, 2018-03-11)"><metadata
   id="metadata43"><rdf:RDF><cc:Work
       rdf:about=""><dc:format>image/svg+xml</dc:format><dc:type
         rdf:resource="http://purl.org/dc/dcmitype/StillImage" /><dc:title></dc:title></cc:Work></rdf:RDF></metadata><defs
   id="defs41" /><sodipodi:namedview
   pagecolor="#ffffff"
   bordercolor="#666666"
   borderopacity="1"
   objecttolerance="10"
   gridtolerance="10"
   guidetolerance="10"
   inkscape:pageopacity="0"
   inkscape:pageshadow="2"
   inkscape:window-width="1559"
   inkscape:window-height="752"
   id="namedview39"
   showgrid="false"
   fit-margin-top="0"
   fit-margin-left="0"
   fit-margin-right="0"
   fit-margin-bottom="0"
   inkscape:showpageshadow="false"
   inkscape:zoom="7.375"
   inkscape:cx="-14.151081"
   inkscape:cy="6.7837175"
   inkscape:window-x="0"
   inkscape:window-y="0"
   inkscape:window-maximized="0"
   inkscape:current-layer="Capa_1" />
<g
   id="g6"
   transform="matrix(0.02645334,0,0,0.02645334,0,-0.68527377)"
   style="fill:#ffb039;fill-opacity:1">
	<path
   d="m 0,92.905 h 48.024 c -0.821,35 -10.748,38.973 -23.216,40.107 L 20,133.608 v 38.486 l 5.542,-0.297 c 16.281,-0.916 34.281,-3.851 46.29,-18.676 C 82.359,140.125 87,118.893 87,86.3 V 25.905 H 0 Z"
   id="path2"
   inkscape:connector-curvature="0"
   style="fill:#ffb039;fill-opacity:1" />
	<path
   d="m 111,25.905 v 67 h 47.383 c -0.821,35 -10.427,38.973 -22.895,40.107 L 131,133.608 v 38.486 l 5.222,-0.297 c 16.281,-0.916 34.442,-3.851 46.451,-18.676 C 193.199,140.125 198,118.893 198,86.3 V 25.905 Z"
   id="path4"
   inkscape:connector-curvature="0"
   style="fill:#ffb039;fill-opacity:1" />
</g>
<g
   id="g8"
   transform="translate(-3.6e-7,-168.22682)">
</g>
<g
   id="g10"
   transform="translate(-3.6e-7,-168.22682)">
</g>
<g
   id="g12"
   transform="translate(-3.6e-7,-168.22682)">
</g>
<g
   id="g14"
   transform="translate(-3.6e-7,-168.22682)">
</g>
<g
   id="g16"
   transform="translate(-3.6e-7,-168.22682)">
</g>
<g
   id="g18"
   transform="translate(-3.6e-7,-168.22682)">
</g>
<g
   id="g20"
   transform="translate(-3.6e-7,-168.22682)">
</g>
<g
   id="g22"
   transform="translate(-3.6e-7,-168.22682)">
</g>
<g
   id="g24"
   transform="translate(-3.6e-7,-168.22682)">
</g>
<g
   id="g26"
   transform="translate(-3.6e-7,-168.22682)">
</g>
<g
   id="g28"
   transform="translate(-3.6e-7,-168.22682)">
</g>
<g
   id="g30"
   transform="translate(-3.6e-7,-168.22682)">
</g>
<g
   id="g32"
   transform="translate(-3.6e-7,-168.22682)">
</g>
<g
   id="g34"
   transform="translate(-3.6e-7,-168.22682)">
</g>
<g
   id="g36"
   transform="translate(-3.6e-7,-168.22682)">
</g>
</svg>