<?xml version="1.0" encoding="UTF-8" standalone="no"?>
<!-- Generator: Adobe Illustrator 19.0.0, SVG Export Plug-In . SVG Version: 6.00 Build 0)  -->

<svg
   xmlns:dc="http://purl.org/dc/elements/1.1/"
   xmlns:cc="http://creativecommons.org/ns#"
   xmlns:rdf="http://www.w3.org/1999/02/22-rdf-syntax-ns#"
   xmlns:svg="http://www.w3.org/2000/svg"
   xmlns="http://www.w3.org/2000/svg"
   xmlns:sodipodi="http://sodipodi.sourceforge.net/DTD/sodipodi-0.dtd"
   xmlns:inkscape="http://www.inkscape.org/namespaces/inkscape"
   version="1.1"
   id="Capa_1"
   x="0px"
   y="0px"
   viewBox="0 0 32 32"
   xml:space="preserve"
   sodipodi:docname="Instagram.svg"
   width="32"
   height="32"
   inkscape:version="0.92.3 (2405546, 2018-03-11)"><metadata
   id="metadata44"><rdf:RDF><cc:Work
       rdf:about=""><dc:format>image/svg+xml</dc:format><dc:type
         rdf:resource="http://purl.org/dc/dcmitype/StillImage" /><dc:title></dc:title></cc:Work></rdf:RDF></metadata><defs
   id="defs42" /><sodipodi:namedview
   pagecolor="#ffffff"
   bordercolor="#666666"
   borderopacity="1"
   objecttolerance="10"
   gridtolerance="10"
   guidetolerance="10"
   inkscape:pageopacity="0"
   inkscape:pageshadow="2"
   inkscape:window-width="1920"
   inkscape:window-height="1017"
   id="namedview40"
   showgrid="false"
   borderlayer="true"
   showborder="true"
   inkscape:showpageshadow="false"
   inkscape:zoom="14.75"
   inkscape:cx="17.692401"
   inkscape:cy="18.847824"
   inkscape:window-x="-8"
   inkscape:window-y="-8"
   inkscape:window-maximized="1"
   inkscape:current-layer="Capa_1" />
<linearGradient
   id="SVGID_1_"
   gradientUnits="userSpaceOnUse"
   x1="256"
   y1="514"
   x2="256"
   y2="2"
   gradientTransform="matrix(1,0,0,-1,0,514)">
	<stop
   offset="0"
   style="stop-color:#2AF598"
   id="stop2" />
	<stop
   offset="1"
   style="stop-color:#009EFD"
   id="stop4" />
</linearGradient>
<path
   style="fill:#ffb039;fill-opacity:1;stroke-width:0.0625"
   d="M 22.7045,32 H 9.2955 C 4.1699375,32 0,27.83006 0,22.7045 V 9.2955 C 0,4.16994 4.1699375,0 9.2955,0 H 22.704563 C 27.830062,0 32,4.16994 32,9.2955 V 22.70456 C 32,27.83006 27.830062,32 22.7045,32 Z M 9.2955,2.5 C 5.5484375,2.5 2.5,5.54844 2.5,9.2955 V 22.70456 C 2.5,26.45156 5.5484375,29.5 9.2955,29.5 H 22.704563 C 26.451563,29.5 29.5,26.45156 29.5,22.7045 V 9.2955 C 29.5,5.54844 26.451563,2.5 22.7045,2.5 Z M 16,24.625 c -4.755875,0 -8.625,-3.86913 -8.625,-8.625 0,-4.75588 3.869125,-8.625 8.625,-8.625 4.755875,0 8.625,3.86912 8.625,8.625 0,4.75587 -3.869125,8.625 -8.625,8.625 z m 0,-14.75 c -3.377312,0 -6.125,2.74769 -6.125,6.125 0,3.37731 2.747688,6.125 6.125,6.125 3.377313,0 6.125,-2.74769 6.125,-6.125 0,-3.37731 -2.747688,-6.125 -6.125,-6.125 z M 23.5,7.25 c 0,0.69038 0.559625,1.25 1.25,1.25 C 25.440375,8.5 26,7.94038 26,7.25 26,6.55962 25.440375,6 24.75,6 24.059625,6 23.5,6.55962 23.5,7.25 Z"
   id="path7"
   inkscape:connector-curvature="0" />
<g
   id="g9"
   transform="translate(0,-480)">
</g>
<g
   id="g11"
   transform="translate(0,-480)">
</g>
<g
   id="g13"
   transform="translate(0,-480)">
</g>
<g
   id="g15"
   transform="translate(0,-480)">
</g>
<g
   id="g17"
   transform="translate(0,-480)">
</g>
<g
   id="g19"
   transform="translate(0,-480)">
</g>
<g
   id="g21"
   transform="translate(0,-480)">
</g>
<g
   id="g23"
   transform="translate(0,-480)">
</g>
<g
   id="g25"
   transform="translate(0,-480)">
</g>
<g
   id="g27"
   transform="translate(0,-480)">
</g>
<g
   id="g29"
   transform="translate(0,-480)">
</g>
<g
   id="g31"
   transform="translate(0,-480)">
</g>
<g
   id="g33"
   transform="translate(0,-480)">
</g>
<g
   id="g35"
   transform="translate(0,-480)">
</g>
<g
   id="g37"
   transform="translate(0,-480)">
</g>
</svg>