<?xml version="1.0" encoding="UTF-8" standalone="no"?>
<!-- Created with Inkscape (http://www.inkscape.org/) -->

<svg
   xmlns:dc="http://purl.org/dc/elements/1.1/"
   xmlns:cc="http://creativecommons.org/ns#"
   xmlns:rdf="http://www.w3.org/1999/02/22-rdf-syntax-ns#"
   xmlns:svg="http://www.w3.org/2000/svg"
   xmlns="http://www.w3.org/2000/svg"
   xmlns:sodipodi="http://sodipodi.sourceforge.net/DTD/sodipodi-0.dtd"
   xmlns:inkscape="http://www.inkscape.org/namespaces/inkscape"
   width="16.842159mm"
   height="11.03232mm"
   viewBox="0 0 16.842159 11.03232"
   version="1.1"
   id="svg8"
   inkscape:version="0.92.3 (2405546, 2018-03-11)"
   sodipodi:docname="logo.svg">
  <defs
     id="defs2" />
  <sodipodi:namedview
     id="base"
     pagecolor="#ffffff"
     bordercolor="#666666"
     borderopacity="1.0"
     inkscape:pageopacity="0.0"
     inkscape:pageshadow="2"
     inkscape:zoom="11.2"
     inkscape:cx="28.701484"
     inkscape:cy="28.184869"
     inkscape:document-units="px"
     inkscape:current-layer="layer1"
     showgrid="false"
     inkscape:pagecheckerboard="true"
     showborder="true"
     fit-margin-top="0"
     fit-margin-left="0"
     fit-margin-right="0"
     fit-margin-bottom="0"
     borderlayer="false"
     inkscape:showpageshadow="false"
     inkscape:window-width="1920"
     inkscape:window-height="1017"
     inkscape:window-x="-8"
     inkscape:window-y="-8"
     inkscape:window-maximized="1" />
  <metadata
     id="metadata5">
    <rdf:RDF>
      <cc:Work
         rdf:about="">
        <dc:format>image/svg+xml</dc:format>
        <dc:type
           rdf:resource="http://purl.org/dc/dcmitype/StillImage" />
        <dc:title />
      </cc:Work>
    </rdf:RDF>
  </metadata>
  <g
     inkscape:label="Layer 1"
     inkscape:groupmode="layer"
     id="layer1"
     transform="translate(-89.852781,-107.03148)">
    <path
       inkscape:connector-curvature="0"
       id="path815"
       style="fill:#ffb039;fill-rule:evenodd;stroke-width:0.26458332;fill-opacity:1"
       d="m 98.449761,107.03148 c 0.2954,0 0.54067,0.3669 0.73641,0.9729 0.47625,-0.42577 0.907199,-0.60201 1.163769,-0.45553 0.25659,0.14647 0.28755,0.58663 0.15706,1.21004 0.62468,-0.13359 1.08638,-0.073 1.23653,0.18143 0.15015,0.25439 -0.041,0.65196 -0.4635,1.12866 0.60878,0.19373 0.97957,0.47527 0.98385,0.7707 0.004,0.29536 -0.35904,0.54586 -0.96226,0.75031 0.43259,0.47011 0.61516,0.89842 0.47236,1.1571 -0.14274,0.25868 -0.58237,0.2961 -1.20758,0.1746 0.14266,0.62272 0.0887,1.08516 -0.16357,1.23899 -0.26236,0.15999 -0.685059,-0.0471 -1.193849,-0.49837 -0.20146,0.6495 -0.47686,1.04701 -0.78391,1.04701 -0.29535,0 -0.56137,-0.36774 -0.76041,-0.97359 -0.47334,0.42744 -0.88665,0.61487 -1.14308,0.46845 -0.25652,-0.14648 -0.30517,-0.59759 -0.17767,-1.22248 -0.62288,0.13642 -1.07476,0.0943 -1.22483,-0.16 -0.15016,-0.25439 0.0313,-0.67027 0.4518,-1.14967 -0.60862,-0.19034 -0.9801,-0.45106 -0.98438,-0.74633 -0.004,-0.29528 0.35954,-0.56653 0.96247,-0.77436 -0.43423,-0.46709 -0.62759,-0.87757 -0.48488,-1.13609 0.14275,-0.25869 0.59317,-0.31375 1.21989,-0.19524 -0.14549,-0.62092 -0.10988,-1.07339 0.14219,-1.22714 0.26228,-0.15991 0.70456,0.0361 1.2147,0.48591 0.20341,-0.65032 0.50152,-1.0473 0.80889,-1.0473 z m 4.815809,10.94581 -1.66103,0.0406 c -0.89339,-0.82364 -1.930929,-0.94072 -3.113609,-1.06304 -1.36441,0.15007 -2.54678,0.18592 -3.54788,1.10895 l -1.66103,-0.0406 c 0.66249,-0.67059 1.98414,-1.07738 4.03079,-1.19422 l 0.0812,-0.004 c -0.27299,-0.0407 -0.55274,-0.0916 -0.83915,-0.15944 -0.66413,0.0756 -1.33824,0.20611 -2.04962,0.4884 0.56115,-0.29761 1.0986,-0.47596 1.64243,-0.5955 -1.60311,-0.46799 -3.40821,-1.54988 -5.41687,-4.40857 -0.14901,0.0225 -0.34086,0.0265 -0.48982,0.007 -0.24459,-0.51398 -0.32422,-1.0419 -0.3882,-1.57996 0.82762,2.01321 4.51771,4.99335 6.93711,5.43751 0.60923,0.11181 1.16642,0.17504 1.69238,0.231 0.4023,-0.0463 0.82471,-0.10247 1.27553,-0.18518 2.419429,-0.44408 6.109489,-3.42429 6.937139,-5.4375 -0.064,0.53805 -0.14365,1.06605 -0.38823,1.57996 -0.14893,0.0197 -0.34078,0.0157 -0.48982,-0.007 -1.93754,2.75751 -3.68578,3.86172 -5.24587,4.35644 0.48586,0.11864 0.96915,0.28951 1.47143,0.55589 -0.62452,-0.24786 -1.22034,-0.37859 -1.80586,-0.45802 -0.23196,0.0624 -0.459659,0.1125 -0.682939,0.15404 1.865839,0.13965 3.084589,0.53806 3.711969,1.17324 z m -3.697049,-1.60845 c 0.11957,0.0162 0.23813,0.0337 0.35602,0.0531 1.258809,-0.35581 2.322379,-0.92348 3.238289,-1.65142 -1.47809,0.96472 -2.62305,1.42716 -3.594309,1.59832 z m -0.19741,0.19291 c -0.2708,-0.0208 -0.54141,-0.0375 -0.81367,-0.0568 -0.3543,0.0334 -0.70371,0.055 -1.05225,0.079 0.30811,0.0588 0.62701,0.10596 0.95708,0.14091 0.31335,-0.0431 0.61614,-0.0977 0.90884,-0.16311 z m -2.07735,-0.18669 c -0.0786,-0.0119 -0.15755,-0.0249 -0.2369,-0.0389 -0.9879,-0.15984 -2.15437,-0.62093 -3.67208,-1.61145 0.96772,0.76912 2.10037,1.35922 3.45382,1.70969 0.15007,-0.0218 0.30173,-0.0413 0.45516,-0.0593 z m 1.9272,-8.25855 0.0159,0.0536 c 0.0788,0.27292 0.14579,0.58687 0.19799,0.93165 0.32348,-0.13036 0.627909,-0.2322 0.902999,-0.303 0.0254,-0.007 0.0506,-0.0128 0.0756,-0.0187 0.1194,-0.6042 -0.007,-0.97081 -0.15682,-1.05616 -0.12518,-0.0739 -0.566099,-0.0196 -1.035609,0.39256 z m 0.2277,1.08016 c 0.0258,0.18225 0.0475,0.37259 0.0647,0.56962 0.20175,0.0147 0.39661,0.0341 0.582989,0.058 0.12509,-0.32956 0.22177,-0.63886 0.28911,-0.91694 l 0.003,-0.0128 -0.0254,0.006 c -0.27721,0.0713 -0.585839,0.16949 -0.914349,0.29581 z m 0.0716,0.65241 c 0.009,0.11806 0.0173,0.2385 0.0235,0.36084 0.10589,0.0656 0.20918,0.13184 0.30954,0.19828 0.0763,-0.16888 0.14602,-0.33465 0.209099,-0.49588 -0.173719,-0.0251 -0.354699,-0.0464 -0.542099,-0.0632 z m 0.0278,0.45384 c 0.004,0.0824 0.006,0.16566 0.008,0.24966 0.0425,0.0737 0.084,0.14708 0.12436,0.22014 0.0482,-0.0975 0.0943,-0.19418 0.13843,-0.28996 -0.088,-0.0604 -0.17841,-0.12031 -0.2712,-0.17984 z m 0.0111,0.40378 c 6.7e-4,0.054 10e-4,0.10838 10e-4,0.16299 0,0.0474 -2.3e-4,0.0946 -7.6e-4,0.14152 0.0274,-0.0523 0.0542,-0.1044 0.0803,-0.15629 -0.0263,-0.0493 -0.0532,-0.0987 -0.0806,-0.14822 z m -0.002,0.46411 c -0.002,0.0833 -0.005,0.16584 -0.008,0.24757 0.0955,-0.0641 0.18863,-0.12862 0.27922,-0.19333 -0.0465,-0.0961 -0.0952,-0.19307 -0.14631,-0.29073 -0.0403,0.0785 -0.082,0.1573 -0.12489,0.23649 z m -0.0121,0.33893 c -0.006,0.12158 -0.0135,0.24119 -0.0226,0.35856 0.19387,-0.0208 0.38114,-0.046 0.560309,-0.075 -0.0667,-0.1623 -0.140309,-0.32904 -0.221079,-0.4989 -0.10253,0.0721 -0.20804,0.14399 -0.31658,0.21532 z m -0.029,0.43574 c -0.0166,0.19532 -0.0376,0.38431 -0.0625,0.56544 0.34708,0.12793 0.672199,0.2253 0.962979,0.2912 l 0.0129,0.003 -0.007,-0.0253 c -0.0754,-0.27615 -0.17806,-0.58336 -0.30909,-0.90999 -0.190789,0.0298 -0.390599,0.0552 -0.597659,0.0757 z m -0.0742,0.64717 c -0.0532,0.3624 -0.12239,0.69189 -0.20465,0.97666 l -5.3e-4,0.002 c 0.49768,0.44085 0.905319,0.51644 1.058309,0.42315 0.12517,-0.0739 0.29064,-0.48607 0.15684,-1.09628 l -0.0546,-0.0121 c -0.28946,-0.0657 -0.611879,-0.16444 -0.955389,-0.29329 z m -1.80808,1.04415 -0.02,-0.0675 c -0.0788,-0.2727 -0.14577,-0.58625 -0.19797,-0.93066 -0.32308,0.13012 -0.62714,0.2319 -0.90202,0.30263 l -0.062,0.0155 c -0.0914,0.61259 0.0234,0.9792 0.17454,1.06918 0.1578,0.0901 0.53909,0.01 1.0074,-0.38918 z m -0.23044,-1.08315 c -0.0263,-0.18515 -0.0486,-0.37875 -0.0661,-0.57928 -0.2001,-0.0146 -0.3933,-0.0339 -0.57824,-0.0575 -0.12396,0.33001 -0.21961,0.63968 -0.28687,0.91778 l -0.004,0.0246 0.0254,-0.006 c 0.27647,-0.0712 0.58352,-0.17121 0.91022,-0.29985 z m -0.0727,-0.65767 c -0.01,-0.11954 -0.0176,-0.24141 -0.0239,-0.36539 -0.10523,-0.0652 -0.20783,-0.13094 -0.30758,-0.19704 -0.0768,0.17177 -0.14679,0.34007 -0.20992,0.5038 0.17354,0.0235 0.35427,0.0432 0.54141,0.0586 z m -0.0281,-0.45569 c -0.004,-0.0832 -0.006,-0.16725 -0.008,-0.25207 -0.0424,-0.0734 -0.0837,-0.14648 -0.12382,-0.21924 -0.0485,0.0987 -0.095,0.19672 -0.13915,0.29372 0.0881,0.0595 0.17865,0.1188 0.27144,0.17759 z m -0.0113,-0.40463 c -6.8e-4,-0.0551 -0.001,-0.11041 -0.001,-0.16597 0,-0.0466 2.2e-4,-0.0931 7.4e-4,-0.13928 -0.0274,0.0528 -0.0544,0.10538 -0.0806,0.1578 0.0265,0.049 0.0534,0.0982 0.0809,0.14745 z m 0.002,-0.46546 c 0.002,-0.0829 0.005,-0.1652 0.008,-0.24667 -0.0964,0.065 -0.19018,0.1305 -0.28138,0.19622 0.047,0.0954 0.0963,0.19169 0.14766,0.28874 0.0407,-0.0791 0.0827,-0.15849 0.12586,-0.23829 z m 0.0121,-0.33906 c 0.006,-0.12083 0.0134,-0.23984 0.0225,-0.35655 -0.19643,0.0217 -0.38595,0.0482 -0.5673,0.0784 0.0679,0.16131 0.1428,0.32715 0.22463,0.49604 0.10356,-0.073 0.21045,-0.14563 0.32018,-0.21786 z m 0.0289,-0.43582 c 0.0164,-0.19381 0.0372,-0.38132 0.0619,-0.56108 -0.34735,-0.12652 -0.67276,-0.22267 -0.96338,-0.2886 l -0.0248,-0.004 0.006,0.0253 c 0.0751,0.27541 0.17962,0.58103 0.31297,0.90578 0.19365,-0.0305 0.39659,-0.0564 0.60712,-0.0773 z m 0.0741,-0.64717 c 0.0526,-0.35896 0.12105,-0.68551 0.2022,-0.96835 -0.52073,-0.41534 -0.92107,-0.50181 -1.07882,-0.40942 -0.15515,0.0946 -0.26931,0.46702 -0.14615,1.06995 l 0.0688,0.0152 c 0.28906,0.0656 0.61087,0.16402 0.95393,0.29266 z m 1.72538,4.44629 c -0.2176,-0.19973 -0.4471,-0.44378 -0.67996,-0.72427 -0.22582,0.28837 -0.44939,0.53999 -0.66204,0.74647 l -0.0462,0.0443 c 0.22434,0.57727 0.50588,0.83865 0.68175,0.8418 0.18902,0 0.49657,-0.27966 0.70644,-0.90831 z m -1.40663,-5.43774 c 0.2142,0.19778 0.43995,0.43831 0.66892,0.71393 0.22619,-0.2889 0.45,-0.54097 0.66294,-0.74766 0.0188,-0.0183 0.0377,-0.0362 0.0563,-0.0537 -0.19582,-0.58381 -0.48763,-0.83939 -0.65977,-0.83939 -0.15121,-0.002 -0.53017,0.28538 -0.72839,0.92683 z m 2.754519,0.71678 -0.0128,0.0544 c -0.0668,0.27614 -0.16431,0.58208 -0.28993,0.90736 0.34552,0.0472 0.66037,0.10964 0.9344,0.18457 0.0254,0.007 0.0503,0.014 0.0749,0.0212 0.4032,-0.46545 0.4749,-0.84667 0.38746,-0.99494 -0.0721,-0.12623 -0.48202,-0.2976 -1.09403,-0.17259 z m -0.33771,1.05098 c -0.068,0.17108 -0.14357,0.34711 -0.226349,0.52666 0.167899,0.11271 0.327519,0.22627 0.477519,0.33938 0.27201,-0.22411 0.50932,-0.44485 0.70567,-0.65289 l 0.009,-0.01 -0.0253,-0.007 c -0.27607,-0.0755 -0.59273,-0.14333 -0.94057,-0.19643 z m -0.261389,0.60203 c -0.0503,0.10732 -0.10321,0.21569 -0.15856,0.32505 0.0594,0.10951 0.11626,0.21817 0.1705,0.32564 0.149989,-0.1089 0.292629,-0.21825 0.427329,-0.32699 -0.13838,-0.10785 -0.28491,-0.21622 -0.439269,-0.3237 z m -0.40282,0.78473 c -0.0225,0.0404 -0.0455,0.0809 -0.0686,0.12142 -0.0235,0.0411 -0.047,0.0819 -0.0707,0.1224 0.0446,-0.0285 0.0887,-0.0572 0.13224,-0.0859 0.003,-0.0523 0.005,-0.10486 0.007,-0.15788 z m -0.22088,0.38121 c -0.0429,0.0713 -0.086,0.14169 -0.12951,0.21098 0.1067,-0.008 0.21185,-0.0167 0.31514,-0.0271 0.009,-0.10367 0.0168,-0.20918 0.0232,-0.31629 -0.0685,0.0443 -0.13816,0.0885 -0.20881,0.13237 z m -0.17843,0.28829 c -0.0655,0.10261 -0.1314,0.20275 -0.19754,0.30017 0.16732,0.0731 0.33142,0.13994 0.49125,0.20048 0.0247,-0.16957 0.0461,-0.34605 0.0634,-0.52837 -0.11692,0.0108 -0.23595,0.0201 -0.35708,0.0277 z m -0.24136,0.36407 c -0.11128,0.16148 -0.22312,0.31515 -0.33456,0.45998 0.22545,0.26834 0.44767,0.50324 0.65738,0.69855 0.0779,-0.27667 0.1464,-0.59341 0.20011,-0.94088 -0.16997,-0.0654 -0.3447,-0.13809 -0.52293,-0.21765 z m -2.47327,0.53541 0.0161,-0.0686 c 0.0668,-0.27583 0.1641,-0.5814 0.28951,-0.90628 -0.3451,-0.0473 -0.65955,-0.10959 -0.93332,-0.18444 l -0.0616,-0.0172 c -0.38309,0.48659 -0.46516,0.86191 -0.37846,1.01505 0.0923,0.15652 0.46305,0.27593 1.0677,0.16147 z m 0.33698,-1.05487 c 0.0689,-0.17391 0.14565,-0.35303 0.22989,-0.53586 -0.1665,-0.11184 -0.32475,-0.22434 -0.47363,-0.33655 -0.27128,0.22516 -0.50789,0.44673 -0.70427,0.65485 l -0.016,0.0191 0.0249,0.008 c 0.27532,0.0753 0.59158,0.14062 0.93906,0.19087 z m 0.26296,-0.6069 c 0.0509,-0.10858 0.10446,-0.21854 0.1605,-0.32924 -0.059,-0.10883 -0.11557,-0.21683 -0.16952,-0.3237 -0.15187,0.111 -0.29609,0.2226 -0.43206,0.33346 0.13906,0.10641 0.28628,0.21328 0.44108,0.31948 z m 0.40553,-0.79033 c 0.0224,-0.0404 0.0452,-0.0807 0.0683,-0.12113 l 0.0696,-0.12046 c -0.0439,0.0282 -0.0874,0.0566 -0.13033,0.0851 -0.003,0.0518 -0.005,0.10401 -0.008,0.15653 z m 0.2199,-0.37973 c 0.0428,-0.071 0.0857,-0.14108 0.12898,-0.21008 -0.10522,0.008 -0.20894,0.0171 -0.31086,0.0276 -0.01,0.10277 -0.0181,0.20746 -0.0249,0.31359 0.0678,-0.0439 0.13679,-0.0877 0.20678,-0.1311 z m 0.17841,-0.28837 c 0.0651,-0.10208 0.13073,-0.20162 0.19642,-0.29843 -0.16425,-0.0711 -0.32549,-0.13612 -0.48255,-0.19507 -0.0257,0.16724 -0.0482,0.34115 -0.0665,0.52085 0.11549,-0.0106 0.2331,-0.0198 0.35264,-0.0274 z m 0.24127,-0.36407 c 0.11033,-0.1602 0.22132,-0.31274 0.33189,-0.45659 -0.22124,-0.26122 -0.43905,-0.49059 -0.64455,-0.68294 -0.0765,0.27328 -0.14581,0.58462 -0.20129,0.92532 0.167,0.0644 0.33877,0.13608 0.51395,0.21421 z m 0.3888,3.40847 c -0.11504,-0.14108 -0.23077,-0.29078 -0.34612,-0.44828 -0.19005,0.0914 -0.37611,0.17467 -0.55671,0.24929 0.0559,0.348 0.12652,0.66442 0.20595,0.93929 l 0.008,0.0236 0.0192,-0.0176 c 0.21336,-0.20722 0.43995,-0.4581 0.66929,-0.74623 z m 0.0566,-3.86064 c 0.11308,0.13882 0.2268,0.28604 0.3402,0.44077 0.19154,-0.0922 0.37926,-0.17616 0.56121,-0.25133 -0.0547,-0.34822 -0.12412,-0.66479 -0.20354,-0.93959 l -0.004,-0.0125 -0.0189,0.0181 c -0.21398,0.20775 -0.44308,0.45765 -0.67528,0.74459 z m 2.744999,1.21224 -0.0382,0.0408 c -0.19492,0.20664 -0.43124,0.42384 -0.70162,0.64405 0.2766,0.2123 0.51906,0.42275 0.7199,0.62368 0.0186,0.0186 0.0368,0.0371 0.0545,0.0556 0.58095,-0.20431 0.83228,-0.49971 0.82982,-0.67185 0,-0.14534 -0.27099,-0.49747 -0.86445,-0.69231 z m -0.81444,0.7452 c -0.14385,0.1148 -0.29684,0.23008 -0.457729,0.34515 0.0899,0.1811 0.172139,0.35885 0.246379,0.53144 0.34732,-0.0597 0.66294,-0.13364 0.9366,-0.21707 l 0.0126,-0.004 -0.0184,-0.0187 c -0.20235,-0.2024 -0.4437,-0.41833 -0.7194,-0.63695 z m -1.264339,0.87487 c -0.0396,0.0239 -0.0796,0.0478 -0.11977,0.0715 -0.0407,0.0241 -0.0815,0.0477 -0.12219,0.0712 0.0529,-0.003 0.10538,-0.006 0.15759,-0.009 0.0282,-0.0441 0.0564,-0.0886 0.0844,-0.13357 z m -0.38079,0.22161 c -0.0727,0.0407 -0.14512,0.0805 -0.21719,0.11904 0.0965,0.0462 0.19222,0.0904 0.2871,0.13266 0.0593,-0.0855 0.11835,-0.17325 0.177,-0.26318 -0.0815,0.005 -0.1638,0.008 -0.24691,0.0115 z m -0.29805,0.16193 c -0.1076,0.0567 -0.2145,0.11099 -0.3203,0.16274 0.10903,0.14648 0.21846,0.28583 0.32721,0.41762 0.10559,-0.13493 0.21166,-0.27757 0.31702,-0.42743 -0.10686,-0.0486 -0.21495,-0.0995 -0.32393,-0.15293 z m -2.80334,-0.56489 0.0479,-0.0515 c 0.19478,-0.20648 0.43087,-0.42336 0.70088,-0.64341 -0.27631,-0.21212 -0.51848,-0.42225 -0.71911,-0.62304 l -0.0448,-0.0455 c -0.57404,0.23273 -0.83145,0.51795 -0.83203,0.69382 0.003,0.18171 0.26543,0.46926 0.84719,0.66968 z m 0.81563,-0.74895 c 0.14603,-0.11687 0.30157,-0.2344 0.4653,-0.3514 -0.0891,-0.17967 -0.17071,-0.35586 -0.24442,-0.52707 -0.34711,0.061 -0.66255,0.13605 -0.93623,0.21944 l -0.0234,0.009 0.0179,0.0189 c 0.20183,0.20199 0.44408,0.41551 0.72091,0.63144 z m 1.27328,-0.88202 0.11946,-0.0713 c 0.0401,-0.0236 0.0801,-0.0471 0.12007,-0.0701 -0.0521,0.003 -0.10393,0.006 -0.15539,0.009 -0.0281,0.0436 -0.0562,0.0875 -0.0841,0.13205 z m 0.37918,-0.22071 c 0.0724,-0.0406 0.14454,-0.0801 0.21632,-0.11851 -0.0953,-0.0453 -0.19,-0.0886 -0.28366,-0.13012 -0.0594,0.0845 -0.11851,0.17116 -0.17714,0.26003 0.0807,-0.005 0.16222,-0.008 0.24448,-0.0114 z m 0.29805,-0.16193 c 0.10702,-0.0563 0.21331,-0.11033 0.31845,-0.16184 -0.10731,-0.1432 -0.21508,-0.27962 -0.32226,-0.4086 -0.1053,0.13245 -0.21114,0.27239 -0.31612,0.41939 0.10559,0.048 0.21232,0.0983 0.31993,0.15105 z m -0.39907,2.71148 c -0.0688,-0.0952 -0.13724,-0.19304 -0.20542,-0.2934 -0.13095,-0.005 -0.25964,-0.011 -0.38579,-0.0194 0.0184,0.18714 0.0412,0.36812 0.0676,0.54158 0.1701,-0.0688 0.34507,-0.14504 0.52364,-0.22881 z m 0.83791,-2.84094 c 0.0679,0.0941 0.13568,0.19074 0.20293,0.28988 0.13171,0.005 0.26117,0.0111 0.38799,0.0194 -0.0175,-0.18449 -0.0391,-0.36306 -0.0643,-0.53435 -0.171,0.0673 -0.34711,0.14234 -0.52665,0.22505 z m 2.344869,2.1748 -0.0534,0.0166 c -0.27173,0.0828 -0.5847,0.15436 -0.92866,0.21151 0.13501,0.32152 0.24119,0.62444 0.31599,0.8985 0.007,0.0253 0.0134,0.0505 0.0198,0.0753 0.60584,0.11062 0.97057,-0.0213 1.05376,-0.17206 0.0721,-0.12616 0.0113,-0.56632 -0.40749,-1.02981 z m -2.608579,0.37618 c -0.0463,0.001 -0.0928,0.002 -0.13941,0.003 -0.0473,6.9e-4 -0.0944,0.001 -0.14124,0.001 0.0473,0.0239 0.0943,0.0472 0.14124,0.0701 0.0463,-0.0242 0.0928,-0.049 0.13941,-0.0742 z m -0.44048,0.004 c -0.0833,-6.9e-4 -0.16605,-0.002 -0.24778,-0.004 0.0609,0.088 0.12216,0.17399 0.18359,0.2577 0.0939,-0.0449 0.18878,-0.0919 0.28424,-0.14086 -0.0731,-0.0365 -0.14639,-0.0739 -0.22005,-0.11242 z m -2.49359,-1.88775 0.0673,-0.021 c 0.27149,-0.0827 0.58402,-0.15412 0.92766,-0.21127 -0.1347,-0.32123 -0.24088,-0.62378 -0.3156,-0.8976 l -0.0164,-0.0617 c -0.61397,-0.0825 -0.97878,0.0376 -1.06659,0.18997 -0.0878,0.15906 -0.002,0.53916 0.40365,1.00163 z m 2.62268,-0.38063 c 0.0462,-10e-4 0.0926,-0.002 0.1392,-0.003 0.0466,-6.9e-4 0.0929,-10e-4 0.13912,-10e-4 -0.0466,-0.0235 -0.0932,-0.0465 -0.13965,-0.069 -0.0461,0.0238 -0.0923,0.0481 -0.13867,0.073 z m 0.43889,-0.004 c 0.083,6.9e-4 0.16515,0.002 0.24654,0.004 -0.0603,-0.0867 -0.12105,-0.17132 -0.18187,-0.25374 -0.0935,0.0439 -0.18767,0.0899 -0.28269,0.13801 0.0724,0.0361 0.14505,0.0733 0.21802,0.11136 z m -0.95856,2.18842 c -0.0454,-0.0679 -0.0905,-0.13679 -0.13539,-0.20677 -0.0782,-0.0455 -0.15533,-0.0914 -0.23108,-0.13761 0.007,0.10973 0.0151,0.21786 0.0248,0.32391 0.1119,0.008 0.2259,0.0152 0.34171,0.0205 z m 1.35044,-2.1029 c 0.0449,0.0672 0.0896,0.13544 0.13403,0.20473 0.0787,0.0457 0.15608,0.0919 0.2322,0.1383 -0.006,-0.10851 -0.0143,-0.2154 -0.0236,-0.32039 -0.11213,-0.009 -0.22643,-0.0169 -0.34269,-0.0226 z m -1.10139,2.1114 c -0.0407,-0.0219 -0.0816,-0.0442 -0.12247,-0.0668 -0.0415,-0.0229 -0.0826,-0.0459 -0.12351,-0.0691 0.0292,0.0442 0.0586,0.0879 0.088,0.1311 0.0523,0.002 0.10498,0.004 0.158,0.005 z m 0.85262,-2.12093 c 0.0406,0.0218 0.0814,0.044 0.12208,0.0665 0.0408,0.0225 0.0812,0.0451 0.12137,0.0679 -0.0289,-0.0435 -0.058,-0.0865 -0.087,-0.12906 -0.0517,-0.002 -0.10396,-0.004 -0.15645,-0.005 z m -1.32254,1.77043 c -0.0246,-0.0393 -0.0491,-0.0789 -0.0734,-0.11879 -0.0289,-0.0473 -0.0573,-0.0946 -0.0853,-0.14174 0.002,0.0565 0.005,0.11258 0.008,0.16822 0.0497,0.0309 0.1,0.0617 0.15084,0.0923 z m 1.79189,-1.4193 c 0.0245,0.0392 0.0488,0.0786 0.073,0.11837 0.0288,0.0472 0.0572,0.0943 0.085,0.14145 -0.002,-0.056 -0.005,-0.11152 -0.007,-0.16666 -0.0497,-0.0312 -0.0999,-0.0623 -0.15076,-0.0932 z m -0.89911,-0.23805 c 0.49853,0 0.90279,0.41738 0.90279,0.93218 0,0.51472 -0.40426,0.9321 -0.90279,0.9321 -0.49861,0 -0.90276,-0.41738 -0.90276,-0.9321 0,-0.5148 0.40415,-0.93218 0.90276,-0.93218 z m 1.06193,0.65035 c -0.0488,-0.0852 -0.0992,-0.17071 -0.15142,-0.25628 -0.0493,-0.0808 -0.0991,-0.1602 -0.14941,-0.23836 -0.0799,-0.0469 -0.16139,-0.0933 -0.24418,-0.13904 -0.0828,-0.0457 -0.16555,-0.0901 -0.24781,-0.1329 -0.0927,-0.001 -0.18653,-9.8e-4 -0.28109,3.7e-4 -0.0947,10e-4 -0.18857,0.004 -0.28134,0.007 -0.0811,0.045 -0.16229,0.0915 -0.24376,0.1396 -0.0815,0.0481 -0.16168,0.0968 -0.2405,0.14602 -0.0481,0.0793 -0.0957,0.15997 -0.14251,0.24209 -0.047,0.0822 -0.0923,0.16426 -0.13644,0.24593 -0.002,0.0927 -0.004,0.18646 -0.004,0.28102 0,0.10043 0.001,0.19994 0.004,0.29834 0.049,0.0852 0.0997,0.17071 0.15195,0.25636 0.049,0.0805 0.0987,0.15975 0.14872,0.23759 0.0804,0.047 0.16224,0.0934 0.24535,0.13928 0.0825,0.0456 0.16483,0.0899 0.24696,0.13261 0.0931,9e-4 0.18719,6.6e-4 0.28215,-6.9e-4 0.0943,-10e-4 0.18772,-0.004 0.2802,-0.007 0.0813,-0.0454 0.1629,-0.0922 0.24466,-0.14047 0.0812,-0.0479 0.1611,-0.0964 0.23968,-0.14528 0.0482,-0.0797 0.0958,-0.16087 0.14288,-0.24328 0.0467,-0.0818 0.0921,-0.1636 0.13613,-0.24495 0.002,-0.0932 0.003,-0.18728 0.003,-0.28224 0,-0.0997 -0.001,-0.19838 -0.004,-0.29593 z" />
  </g>
</svg>
