<?xml version="1.0" encoding="UTF-8" standalone="no"?>
<!-- Generator: Adobe Illustrator 16.0.0, SVG Export Plug-In . SVG Version: 6.00 Build 0)  -->

<svg
   xmlns:dc="http://purl.org/dc/elements/1.1/"
   xmlns:cc="http://creativecommons.org/ns#"
   xmlns:rdf="http://www.w3.org/1999/02/22-rdf-syntax-ns#"
   xmlns:svg="http://www.w3.org/2000/svg"
   xmlns="http://www.w3.org/2000/svg"
   xmlns:sodipodi="http://sodipodi.sourceforge.net/DTD/sodipodi-0.dtd"
   xmlns:inkscape="http://www.inkscape.org/namespaces/inkscape"
   version="1.1"
   id="Capa_1"
   x="0px"
   y="0px"
   width="11.618286"
   height="20"
   viewBox="0 0 0.79421878 1.3671875"
   xml:space="preserve"
   sodipodi:docname="smartphone.svg"
   inkscape:version="0.92.3 (2405546, 2018-03-11)"><metadata
   id="metadata41"><rdf:RDF><cc:Work
       rdf:about=""><dc:format>image/svg+xml</dc:format><dc:type
         rdf:resource="http://purl.org/dc/dcmitype/StillImage" /><dc:title></dc:title></cc:Work></rdf:RDF></metadata><defs
   id="defs39" /><sodipodi:namedview
   pagecolor="#ffffff"
   bordercolor="#666666"
   borderopacity="1"
   objecttolerance="10"
   gridtolerance="10"
   guidetolerance="10"
   inkscape:pageopacity="0"
   inkscape:pageshadow="2"
   inkscape:window-width="1920"
   inkscape:window-height="1017"
   id="namedview37"
   showgrid="false"
   fit-margin-top="0"
   fit-margin-left="0"
   fit-margin-right="0"
   fit-margin-bottom="0"
   inkscape:zoom="10.429825"
   inkscape:cx="29.611159"
   inkscape:cy="33.508295"
   inkscape:window-x="-8"
   inkscape:window-y="-8"
   inkscape:window-maximized="1"
   inkscape:current-layer="g4" />
<g
   id="g4"
   transform="matrix(0.0390625,0,0,0.0390625,-0.28648438,0)">
	<path
   d="M 25.302,2.0219685e-8 H 9.698 C 8.398,2.0219685e-8 7.334,1.063 7.334,2.364 V 32.635 C 7.334,33.936 8.398,35 9.698,35 h 15.604 c 1.3,0 2.364,-1.062 2.364,-2.364 V 2.364 C 27.666,1.063 26.602,2.0219687e-8 25.302,2.0219685e-8 Z M 15.004,1.704 h 4.992 c 0.158,0 0.286,0.128 0.286,0.287 0,0.158 -0.128,0.286 -0.286,0.286 h -4.992 c -0.158,0 -0.286,-0.128 -0.286,-0.286 0,-0.159 0.128,-0.287 0.286,-0.287 z M 17.5,33.818 c -0.653,0 -1.182,-0.529 -1.182,-1.183 0,-0.654 0.529,-1.182 1.182,-1.182 0.653,0 1.182,0.528 1.182,1.182 0,0.654 -0.529,1.183 -1.182,1.183 z m 8.521,-3.193 H 8.979 V 3.749 h 17.042 z"
   id="path2"
   inkscape:connector-curvature="0"
   style="fill:#ffb039;stroke-width:1" />
</g>
<g
   id="g6"
   transform="translate(-7.334,-33.632813)">
</g>
<g
   id="g8"
   transform="translate(-7.334,-33.632813)">
</g>
<g
   id="g10"
   transform="translate(-7.334,-33.632813)">
</g>
<g
   id="g12"
   transform="translate(-7.334,-33.632813)">
</g>
<g
   id="g14"
   transform="translate(-7.334,-33.632813)">
</g>
<g
   id="g16"
   transform="translate(-7.334,-33.632813)">
</g>
<g
   id="g18"
   transform="translate(-7.334,-33.632813)">
</g>
<g
   id="g20"
   transform="translate(-7.334,-33.632813)">
</g>
<g
   id="g22"
   transform="translate(-7.334,-33.632813)">
</g>
<g
   id="g24"
   transform="translate(-7.334,-33.632813)">
</g>
<g
   id="g26"
   transform="translate(-7.334,-33.632813)">
</g>
<g
   id="g28"
   transform="translate(-7.334,-33.632813)">
</g>
<g
   id="g30"
   transform="translate(-7.334,-33.632813)">
</g>
<g
   id="g32"
   transform="translate(-7.334,-33.632813)">
</g>
<g
   id="g34"
   transform="translate(-7.334,-33.632813)">
</g>
</svg>