<?xml version="1.0" encoding="UTF-8" standalone="no"?>
<svg
   xmlns:dc="http://purl.org/dc/elements/1.1/"
   xmlns:cc="http://creativecommons.org/ns#"
   xmlns:rdf="http://www.w3.org/1999/02/22-rdf-syntax-ns#"
   xmlns:svg="http://www.w3.org/2000/svg"
   xmlns="http://www.w3.org/2000/svg"
   xmlns:sodipodi="http://sodipodi.sourceforge.net/DTD/sodipodi-0.dtd"
   xmlns:inkscape="http://www.inkscape.org/namespaces/inkscape"
   height="32.048462"
   id="Layer_1"
   version="1.1"
   viewBox="0 0 32.000003 32.048461"
   width="32.000004"
   xml:space="preserve"
   sodipodi:docname="viber.svg"
   inkscape:version="0.92.3 (2405546, 2018-03-11)"><metadata
     id="metadata11"><rdf:RDF><cc:Work
         rdf:about=""><dc:format>image/svg+xml</dc:format><dc:type
           rdf:resource="http://purl.org/dc/dcmitype/StillImage" /><dc:title></dc:title></cc:Work></rdf:RDF></metadata><defs
     id="defs9" /><sodipodi:namedview
     pagecolor="#ffffff"
     bordercolor="#666666"
     borderopacity="1"
     objecttolerance="10"
     gridtolerance="10"
     guidetolerance="10"
     inkscape:pageopacity="0"
     inkscape:pageshadow="2"
     inkscape:window-width="1920"
     inkscape:window-height="1017"
     id="namedview7"
     showgrid="false"
     fit-margin-top="0"
     fit-margin-left="0"
     fit-margin-right="0"
     fit-margin-bottom="0"
     inkscape:zoom="4.1622574"
     inkscape:cx="24.40168"
     inkscape:cy="24.524863"
     inkscape:window-x="-8"
     inkscape:window-y="-8"
     inkscape:window-maximized="1"
     inkscape:current-layer="Layer_1" /><g
     transform="matrix(0.06490637,0,0,-0.06490637,-2.5627112,614.3398)"
     id="g4"
     style="fill:#ffb039;fill-opacity:1"><path
       d="m 113.3835,9464.4268 c -9.5542,-1.0557 -20.323,-4.4873 -29.771,-9.3965 -22.2234,-11.7178 -38.7445,-34.5215 -43.126,-59.6475 -0.9507,-5.3311 -1.0033,-12.5098 -1.0033,-178.415 v -172.873 l 1.2147,-5.3838 c 7.601,-34.3633 31.8819,-58.6455 66.2458,-66.2461 l 5.384,-1.2139 h 173.6645 173.6653 l 5.384,1.2139 c 34.363,7.6006 58.6448,31.8828 66.2458,66.2461 l 1.2138,5.3838 v 172.873 c 0,165.9053 -0.0526,173.084 -1.0023,178.415 -1.32,7.707 -3.9588,15.4668 -7.9713,23.4893 -12.5096,25.1797 -37.636,42.5986 -65.823,45.6602 -6.4401,0.6865 -338.0924,0.6327 -344.321,-0.1055 z m 188.6025,-87.7832 c 18.1584,-2.2695 32.8326,-6.6504 48.9327,-14.5156 15.8352,-7.7598 25.9698,-15.0967 39.3776,-28.4512 12.5631,-12.6162 19.531,-22.1699 26.9207,-37.0029 10.2935,-20.6924 16.1528,-45.29 17.1552,-72.3691 0.3701,-9.2363 0.1062,-11.2959 -2.0058,-13.9346 -4.0114,-5.1211 -12.8272,-4.2754 -15.8353,1.4775 -0.9507,1.9004 -1.2147,3.5361 -1.5313,10.9268 -0.528,11.3486 -1.319,18.6855 -2.9029,27.4482 -6.2285,34.3633 -22.6979,61.8115 -48.9854,81.501 -21.9058,16.4688 -44.5511,24.4932 -74.2159,26.2344 -10.0295,0.5811 -11.7713,0.9502 -14.0409,2.6924 -4.2238,3.3252 -4.4341,11.1367 -0.3701,14.7793 2.4811,2.2705 4.2228,2.5869 12.8272,2.3232 4.4869,-0.1583 11.0847,-0.6866 14.6742,-1.1094 z m -120.6676,-5.7002 c 1.8479,-0.6338 4.6982,-2.1113 6.3347,-3.167 10.0286,-6.6514 37.9525,-42.3867 47.0849,-60.2285 5.2252,-10.1875 6.9669,-17.7363 5.3314,-23.3311 -1.6901,-6.0176 -4.4868,-9.1855 -16.9973,-19.2676 -5.0147,-4.0635 -9.7129,-8.2334 -10.4513,-9.3428 -1.9005,-2.7451 -3.4318,-8.1289 -3.4318,-11.9297 0.0536,-8.8145 5.7541,-24.8086 13.2499,-37.1084 5.8057,-9.5537 16.2044,-21.7998 26.4979,-31.1953 12.0878,-11.0859 22.7505,-18.6338 34.7857,-24.5986 15.466,-7.7061 24.915,-9.6592 31.8302,-6.4404 1.7417,0.792 3.5887,1.8486 4.1701,2.3223 0.527,0.4756 4.592,5.4375 9.0262,10.9268 8.5508,10.7695 10.5039,12.5107 16.3632,14.5166 7.4432,2.5332 15.0442,1.8477 22.6978,-2.0586 5.8067,-3.0088 18.4751,-10.874 26.6567,-16.5742 10.7679,-7.5488 33.7823,-26.3408 36.8976,-30.0889 5.4892,-6.7559 6.4399,-15.4121 2.7441,-24.9678 -3.9062,-10.0811 -19.1083,-28.9785 -29.7184,-37.0547 -9.6067,-7.2852 -16.4158,-10.0811 -25.3894,-10.5039 -7.3896,-0.3691 -10.4513,0.2637 -19.9003,4.1699 -74.1107,30.5625 -133.2834,76.1689 -180.263,138.8262 -24.5448,32.7266 -43.2312,66.668 -56.0058,101.876 -7.4422,20.5332 -7.8115,29.4541 -1.6891,39.959 2.6398,4.4336 13.8831,15.4131 22.0647,21.5361 13.6191,10.1348 19.9003,13.8828 24.915,14.9385 3.4308,0.7392 9.3952,0.1581 13.1963,-1.2139 z m 124.3099,-32.5694 c 32.0415,-4.6973 56.8503,-19.583 73.1082,-43.7588 9.1323,-13.6182 14.8329,-29.6123 16.786,-46.7676 0.6858,-6.2822 0.6858,-17.7363 -0.0526,-19.6367 -0.6868,-1.7949 -2.9038,-4.2227 -4.8044,-5.2256 -2.0584,-1.0557 -6.4389,-0.9502 -8.8674,0.3164 -4.065,2.0586 -5.2787,5.332 -5.2787,14.1992 0,13.6719 -3.537,28.082 -9.6593,39.2725 -6.9679,12.7744 -17.1024,23.3311 -29.4542,30.6689 -10.61,6.334 -26.2874,11.0322 -40.5924,12.1934 -5.1735,0.4229 -8.0238,1.4775 -9.9769,3.748 -3.0081,3.4307 -3.3256,8.0762 -0.792,11.9287 2.7451,4.2765 6.9679,4.963 19.5837,3.0616 z m 11.2433,-39.8525 c 10.3987,-2.2168 18.3699,-6.1758 25.179,-12.5635 8.7622,-8.2861 13.5664,-18.3164 15.6773,-32.7266 1.4252,-9.3955 0.8446,-13.0908 -2.4811,-16.1523 -3.1141,-2.8506 -8.8672,-2.9561 -12.3517,-0.2637 -2.5337,1.9004 -3.3257,3.9062 -3.9062,9.3428 -0.6858,7.2314 -1.953,12.2988 -4.1166,16.9971 -4.6456,9.9766 -12.8272,15.1494 -26.6567,16.8389 -6.4935,0.792 -8.4465,1.5303 -10.5575,4.0107 -3.8536,4.5928 -2.3759,12.0361 2.9555,14.7803 2.0067,1.0029 2.8512,1.1094 7.2845,0.8447 2.7449,-0.1582 6.8099,-0.6328 8.9735,-1.1084 z"
       id="path2"
       inkscape:connector-curvature="0"
       style="fill:#ffb039;fill-opacity:1" /></g></svg>