<?xml version="1.0" encoding="UTF-8" standalone="no"?>
<!-- Generator: Adobe Illustrator 19.0.0, SVG Export Plug-In . SVG Version: 6.00 Build 0)  -->

<svg
   xmlns:dc="http://purl.org/dc/elements/1.1/"
   xmlns:cc="http://creativecommons.org/ns#"
   xmlns:rdf="http://www.w3.org/1999/02/22-rdf-syntax-ns#"
   xmlns:svg="http://www.w3.org/2000/svg"
   xmlns="http://www.w3.org/2000/svg"
   xmlns:sodipodi="http://sodipodi.sourceforge.net/DTD/sodipodi-0.dtd"
   xmlns:inkscape="http://www.inkscape.org/namespaces/inkscape"
   version="1.1"
   id="Capa_1"
   x="0px"
   y="0px"
   viewBox="0 0 31.997625 18.25707"
   xml:space="preserve"
   width="32"
   height="18.258425"
   sodipodi:docname="vkontakte.svg"
   inkscape:version="0.92.3 (2405546, 2018-03-11)"><metadata
   id="metadata43"><rdf:RDF><cc:Work
       rdf:about=""><dc:format>image/svg+xml</dc:format><dc:type
         rdf:resource="http://purl.org/dc/dcmitype/StillImage" /><dc:title /></cc:Work></rdf:RDF></metadata><defs
   id="defs41" /><sodipodi:namedview
   pagecolor="#ffffff"
   bordercolor="#666666"
   borderopacity="1"
   objecttolerance="10"
   gridtolerance="10"
   guidetolerance="10"
   inkscape:pageopacity="0"
   inkscape:pageshadow="2"
   inkscape:window-width="1920"
   inkscape:window-height="1017"
   id="namedview39"
   showgrid="false"
   fit-margin-top="0"
   fit-margin-left="0"
   fit-margin-right="0"
   fit-margin-bottom="0"
   inkscape:zoom="20.85965"
   inkscape:cx="8.0748426"
   inkscape:cy="7.7245582"
   inkscape:window-x="-8"
   inkscape:window-y="-8"
   inkscape:window-maximized="1"
   inkscape:current-layer="Capa_1" />
<g
   id="g6"
   transform="matrix(0.06249995,0,0,0.06249995,9.0013179e-6,-6.8702626)">
	<g
   id="g4">
		<path
   d="m 507.399,370.471 c -1.376,-2.304 -9.888,-20.8 -50.848,-58.816 -42.88,-39.808 -37.12,-33.344 14.528,-102.176 31.456,-41.92 44.032,-67.52 40.096,-78.464 -3.744,-10.432 -26.88,-7.68 -26.88,-7.68 l -76.928,0.448 c 0,0 -5.696,-0.768 -9.952,1.76 -4.128,2.496 -6.784,8.256 -6.784,8.256 0,0 -12.192,32.448 -28.448,60.032 -34.272,58.208 -48,61.28 -53.6,57.664 -13.024,-8.416 -9.76,-33.856 -9.76,-51.904 0,-56.416 8.544,-79.936 -16.672,-86.016 -8.384,-2.016 -14.528,-3.36 -35.936,-3.584 -27.456,-0.288 -50.72,0.096 -63.872,6.528 -8.768,4.288 -15.52,13.856 -11.392,14.4 5.088,0.672 16.608,3.104 22.72,11.424 7.904,10.72 7.616,34.848 7.616,34.848 0,0 4.544,66.4 -10.592,74.656 -10.4,5.664 -24.64,-5.888 -55.2,-58.72 -15.648,-27.04 -27.488,-56.96 -27.488,-56.96 0,0 -2.272,-5.568 -6.336,-8.544 -4.928,-3.616 -11.84,-4.768 -11.84,-4.768 l -73.152,0.448 c 0,0 -10.976,0.32 -15.008,5.088 -3.584,4.256 -0.288,13.024 -0.288,13.024 0,0 57.28,133.984 122.112,201.536 59.488,61.92 127.008,57.856 127.008,57.856 h 30.592 c 0,0 9.248,-1.024 13.952,-6.112 4.352,-4.672 4.192,-13.44 4.192,-13.44 0,0 -0.608,-41.056 18.464,-47.104 18.784,-5.952 42.912,39.68 68.48,57.248 19.328,13.28 34.016,10.368 34.016,10.368 l 68.384,-0.96 c 0,0 35.776,-2.208 18.816,-30.336 z"
   id="path2"
   inkscape:connector-curvature="0"
   style="fill:#ffb039" />
	</g>
</g>
<g
   id="g8"
   transform="translate(1.440212e-4,-383.78056)">
</g>
<g
   id="g10"
   transform="translate(1.440212e-4,-383.78056)">
</g>
<g
   id="g12"
   transform="translate(1.440212e-4,-383.78056)">
</g>
<g
   id="g14"
   transform="translate(1.440212e-4,-383.78056)">
</g>
<g
   id="g16"
   transform="translate(1.440212e-4,-383.78056)">
</g>
<g
   id="g18"
   transform="translate(1.440212e-4,-383.78056)">
</g>
<g
   id="g20"
   transform="translate(1.440212e-4,-383.78056)">
</g>
<g
   id="g22"
   transform="translate(1.440212e-4,-383.78056)">
</g>
<g
   id="g24"
   transform="translate(1.440212e-4,-383.78056)">
</g>
<g
   id="g26"
   transform="translate(1.440212e-4,-383.78056)">
</g>
<g
   id="g28"
   transform="translate(1.440212e-4,-383.78056)">
</g>
<g
   id="g30"
   transform="translate(1.440212e-4,-383.78056)">
</g>
<g
   id="g32"
   transform="translate(1.440212e-4,-383.78056)">
</g>
<g
   id="g34"
   transform="translate(1.440212e-4,-383.78056)">
</g>
<g
   id="g36"
   transform="translate(1.440212e-4,-383.78056)">
</g>
</svg>