<?xml version="1.0" encoding="UTF-8" standalone="no"?>
<svg
   xmlns:dc="http://purl.org/dc/elements/1.1/"
   xmlns:cc="http://creativecommons.org/ns#"
   xmlns:rdf="http://www.w3.org/1999/02/22-rdf-syntax-ns#"
   xmlns:svg="http://www.w3.org/2000/svg"
   xmlns="http://www.w3.org/2000/svg"
   xmlns:xlink="http://www.w3.org/1999/xlink"
   xmlns:sodipodi="http://sodipodi.sourceforge.net/DTD/sodipodi-0.dtd"
   xmlns:inkscape="http://www.inkscape.org/namespaces/inkscape"
   height="40.587215"
   id="svg4376"
   width="39.42857"
   version="1.1"
   sodipodi:docname="smile.svg"
   inkscape:version="0.92.3 (2405546, 2018-03-11)">
  <metadata
     id="metadata39">
    <rdf:RDF>
      <cc:Work
         rdf:about="">
        <dc:format>image/svg+xml</dc:format>
        <dc:type
           rdf:resource="http://purl.org/dc/dcmitype/StillImage" />
        <dc:title></dc:title>
      </cc:Work>
    </rdf:RDF>
  </metadata>
  <sodipodi:namedview
     pagecolor="#ffffff"
     bordercolor="#666666"
     borderopacity="1"
     objecttolerance="10"
     gridtolerance="10"
     guidetolerance="10"
     inkscape:pageopacity="0"
     inkscape:pageshadow="2"
     inkscape:window-width="1920"
     inkscape:window-height="1017"
     id="namedview37"
     showgrid="false"
     inkscape:zoom="4.9166667"
     inkscape:cx="14"
     inkscape:cy="18.285718"
     inkscape:window-x="-8"
     inkscape:window-y="-8"
     inkscape:window-maximized="1"
     inkscape:current-layer="svg4376"
     fit-margin-top="0"
     fit-margin-left="0"
     fit-margin-right="0"
     fit-margin-bottom="0"
     inkscape:showpageshadow="false" />
  <defs
     id="defs3">
    <linearGradient
       id="linearGradient3290">
      <stop
         id="stop3292"
         offset="0.0000000"
         style="stop-color:#fffcde;stop-opacity:1.0000000;" />
      <stop
         id="stop3294"
         offset="0.64485979"
         style="stop-color:#f6e76a;stop-opacity:1.0000000;" />
      <stop
         id="stop3296"
         offset="1.0000000"
         style="stop-color:#ffb738;stop-opacity:1.0000000;" />
    </linearGradient>
    <radialGradient
       cx="29.288071"
       cy="15.720984"
       fx="29.158466"
       fy="15.755712"
       gradientUnits="userSpaceOnUse"
       id="radialGradient2714"
       r="8.9020796"
       xlink:href="#linearGradient3290" />
    <linearGradient
       id="linearGradient2509">
      <stop
         id="stop2511"
         offset="0.0000000"
         style="stop-color:#fffbd5;stop-opacity:1.0000000;" />
      <stop
         id="stop2513"
         offset="1.0000000"
         style="stop-color:#edd400;stop-opacity:1.0000000;" />
    </linearGradient>
    <radialGradient
       cx="25.0527"
       cy="39.5928"
       fx="25.0527"
       fy="39.5928"
       gradientTransform="matrix(1.25,0,0,1.25,-6.479446,-13.37211)"
       gradientUnits="userSpaceOnUse"
       id="aigrd2"
       r="15.7572">
      <stop
         id="stop8602"
         offset="0.0000000"
         style="stop-color:#777777;stop-opacity:1.0000000;" />
      <stop
         id="stop8604"
         offset="1"
         style="stop-color:#000000" />
    </radialGradient>
    <linearGradient
       id="linearGradient4565">
      <stop
         id="stop4567"
         offset="0"
         style="stop-color:#000000;stop-opacity:1;" />
      <stop
         id="stop4569"
         offset="1"
         style="stop-color:#000000;stop-opacity:0;" />
    </linearGradient>
    <linearGradient
       id="linearGradient3824">
      <stop
         id="stop3826"
         offset="0"
         style="stop-color:#ffffff;stop-opacity:1;" />
      <stop
         id="stop3828"
         offset="1.0000000"
         style="stop-color:#c9c9c9;stop-opacity:1.0000000;" />
    </linearGradient>
    <linearGradient
       id="linearGradient3800">
      <stop
         id="stop3802"
         offset="0.0000000"
         style="stop-color:#ffeed6;stop-opacity:1.0000000;" />
      <stop
         id="stop8664"
         offset="0.50000000"
         style="stop-color:#e49c2f;stop-opacity:1.0000000;" />
      <stop
         id="stop3804"
         offset="1.0000000"
         style="stop-color:#ffc66c;stop-opacity:1.0000000;" />
    </linearGradient>
    <radialGradient
       cx="24.714285"
       cy="38.57143"
       fx="24.714285"
       fy="38.57143"
       gradientTransform="matrix(1,0,0,0.333333,0,25.71429)"
       gradientUnits="userSpaceOnUse"
       id="radialGradient4571"
       r="19.714285"
       xlink:href="#linearGradient4565" />
  </defs>
  <g
     id="layer1"
     transform="matrix(1.0300671,0,0,1.0300671,-5.1503354,-4.6926192)">
    <path
       d="m 44.42857,38.57143 a 19.714285,6.5714288 0 1 1 -39.42857,0 19.714285,6.5714288 0 1 1 39.42857,0 z"
       id="path4563"
       style="color:#000000;display:inline;overflow:visible;visibility:visible;opacity:0.53164559;fill:url(#radialGradient4571);fill-opacity:1;fill-rule:evenodd;stroke:none;stroke-width:0.40487173;stroke-linecap:round;stroke-linejoin:round;stroke-miterlimit:4;stroke-dasharray:none;stroke-dashoffset:0;stroke-opacity:1;marker:none;marker-start:none;marker-mid:none;marker-end:none"
       inkscape:connector-curvature="0" />
    <path
       d="m 39.774755,19.008621 a 8.6620579,8.6620579 0 1 1 -17.324115,0 8.6620579,8.6620579 0 1 1 17.324115,0 z"
       id="path4320"
       style="color:#000000;display:inline;overflow:visible;visibility:visible;opacity:1;fill:url(#radialGradient2714);fill-opacity:1;fill-rule:evenodd;stroke:#9c8c0a;stroke-width:0.48004404;stroke-linecap:round;stroke-linejoin:round;stroke-miterlimit:4;stroke-dasharray:none;stroke-dashoffset:0;stroke-opacity:1;marker:none;marker-start:none;marker-mid:none;marker-end:none"
       transform="matrix(2.083142,0,0,2.083142,-40.54715,-16.49224)"
       inkscape:connector-curvature="0" />
    <path
       d="m 39.774755,19.008621 a 8.6620579,8.6620579 0 1 1 -17.324115,0 8.6620579,8.6620579 0 1 1 17.324115,0 z"
       id="path4322"
       style="color:#000000;display:inline;overflow:visible;visibility:visible;opacity:0.67721522;fill:none;fill-opacity:1;fill-rule:evenodd;stroke:#ffffff;stroke-width:0.50510627;stroke-linecap:round;stroke-linejoin:round;stroke-miterlimit:4;stroke-dasharray:none;stroke-dashoffset:0;stroke-opacity:1;marker:none;marker-start:none;marker-mid:none;marker-end:none"
       transform="matrix(1.979782,0,0,1.979782,-37.33128,-14.52746)"
       inkscape:connector-curvature="0" />
    <path
       d="m 37.284637,24.719966 c -3.016467,5.224673 -6.543503,8.990039 -12.822145,8.990039 -6.100017,0 -10.565537,-4.339697 -13.352476,-9.166816 2.549413,3.05592 6.282932,6.566312 13.087311,6.566312 8.130204,0 9.551776,-2.906855 13.08731,-6.389535 z"
       id="path2659"
       style="color:#000000;display:inline;overflow:visible;visibility:visible;opacity:0.36000001;fill:#ffffff;fill-opacity:1;fill-rule:nonzero;stroke:none;stroke-width:1;stroke-linecap:butt;stroke-linejoin:miter;stroke-miterlimit:4;stroke-dasharray:none;stroke-dashoffset:0;stroke-opacity:1;marker:none;marker-start:none;marker-mid:none;marker-end:none"
       inkscape:connector-curvature="0" />
    <path
       d="m 37.284637,24.012862 c -3.016467,5.224673 -6.543503,8.990039 -12.822145,8.990039 -6.100017,0 -10.565537,-4.339697 -13.352476,-9.166816 2.549413,3.05592 6.282932,6.566312 13.087311,6.566312 8.130204,0 9.551776,-2.906855 13.08731,-6.389535 z"
       id="path8606"
       style="fill:url(#aigrd2);fill-rule:nonzero;stroke:none;stroke-miterlimit:4"
       inkscape:connector-curvature="0" />
    <g
       id="g8666"
       transform="translate(0.353553,2.392706)">
      <path
         d="m 21.398158,15.321428 c 0,2.5 -1.125,4.5 -2.5,4.5 -1.375,0 -2.625,-2 -2.625,-4.5 0,-2.5 1.125,-4.5 2.5,-4.5 1.375,0 2.5,2 2.5,4.5 z"
         id="path8610"
         style="opacity:0.36000001;fill:#ffffff;fill-rule:nonzero;stroke:none;stroke-miterlimit:4"
         inkscape:connector-curvature="0" />
      <path
         d="m 30.688512,15.321428 c 0,2.5 -1.125,4.5 -2.5,4.5 -1.375,0 -2.5,-2 -2.5,-4.5 0,-2.5 1.125,-4.5 2.5,-4.5 1.375,0 2.5,2 2.5,4.5 z"
         id="path8612"
         style="opacity:0.36000001;fill:#ffffff;fill-rule:nonzero;stroke:none;stroke-miterlimit:4"
         inkscape:connector-curvature="0" />
      <path
         d="m 21.398158,14.696428 c 0,2.5 -1.125,4.5 -2.5,4.5 -1.375,0 -2.5,-2 -2.5,-4.5 0,-2.5 1.125,-4.5 2.5,-4.5 1.375,0 2.5,2 2.5,4.5 z"
         id="path8614"
         style="fill:#000000;fill-rule:nonzero;stroke:none;stroke-miterlimit:4"
         inkscape:connector-curvature="0" />
      <path
         d="m 30.688512,14.696428 c 0,2.5 -1.125,4.5 -2.5,4.5 -1.375,0 -2.5,-2 -2.5,-4.5 0,-2.5 1.125,-4.5 2.5,-4.5 1.375,0 2.5,2 2.5,4.5 z"
         id="path8616"
         style="fill:#000000;fill-rule:nonzero;stroke:none;stroke-miterlimit:4"
         inkscape:connector-curvature="0" />
    </g>
  </g>
</svg>
