<?xml version="1.0" encoding="UTF-8" standalone="no"?>
<!-- Svg Vector Icons : http://www.onlinewebfonts.com/icon -->

<svg
   xmlns:dc="http://purl.org/dc/elements/1.1/"
   xmlns:cc="http://creativecommons.org/ns#"
   xmlns:rdf="http://www.w3.org/1999/02/22-rdf-syntax-ns#"
   xmlns:svg="http://www.w3.org/2000/svg"
   xmlns="http://www.w3.org/2000/svg"
   xmlns:sodipodi="http://sodipodi.sourceforge.net/DTD/sodipodi-0.dtd"
   xmlns:inkscape="http://www.inkscape.org/namespaces/inkscape"
   version="1.1"
   x="0px"
   y="0px"
   viewBox="0 0 111.14972 100"
   enable-background="new 0 0 1000 1000"
   xml:space="preserve"
   id="svg10"
   sodipodi:docname="download.svg"
   width="111.14972"
   height="100"
   inkscape:version="0.92.3 (2405546, 2018-03-11)"><defs
   id="defs14" /><sodipodi:namedview
   pagecolor="#ffffff"
   bordercolor="#666666"
   borderopacity="1"
   objecttolerance="10"
   gridtolerance="10"
   guidetolerance="10"
   inkscape:pageopacity="0"
   inkscape:pageshadow="2"
   inkscape:window-width="1920"
   inkscape:window-height="1017"
   id="namedview12"
   showgrid="false"
   fit-margin-top="0"
   fit-margin-left="0"
   fit-margin-right="0"
   fit-margin-bottom="0"
   inkscape:zoom="5.3400704"
   inkscape:cx="51.437827"
   inkscape:cy="23.902117"
   inkscape:window-x="-8"
   inkscape:window-y="-8"
   inkscape:window-maximized="1"
   inkscape:current-layer="svg10"
   inkscape:showpageshadow="false" />
<metadata
   id="metadata2"> Svg Vector Icons : http://www.onlinewebfonts.com/icon <rdf:RDF><cc:Work
     rdf:about=""><dc:format>image/svg+xml</dc:format><dc:type
       rdf:resource="http://purl.org/dc/dcmitype/StillImage" /><dc:title></dc:title></cc:Work></rdf:RDF></metadata>
<g
   id="g8"
   transform="matrix(0.11343013,0,0,0.11343013,-1.1421784,-6.7150637)"><g
     id="g6"><path
       d="M 745,353.2 H 598 V 59.2 H 402 v 294 H 255 l 245,245 z M 957.5,673.3 C 947.2,662.3 878.6,588.9 859,569.7 846,557 827.4,549.2 807.9,549.2 H 721.8 L 872,695.9 H 698.3 c -5,0 -9.5,2.5 -11.8,6.5 l -40,91.8 H 353.4 l -40,-91.8 c -2.3,-4 -6.8,-6.5 -11.8,-6.5 H 128 L 278.1,549.2 h -86 c -19.5,0 -38,7.8 -51.1,20.5 -19.6,19.2 -88.2,92.7 -98.5,103.6 -24,25.5 -37.1,45.9 -30.9,71 L 39,894.9 c 6.3,25.2 33.9,45.9 61.3,45.9 h 799.3 c 27.5,0 55.1,-20.7 61.3,-45.9 l 27.5,-150.6 c 6.3,-25.2 -6.9,-45.5 -30.9,-71 z"
       id="path4"
       inkscape:connector-curvature="0" /></g></g>
</svg>