<?xml version="1.0" encoding="UTF-8" standalone="no"?>
<!-- Generator: Adobe Illustrator 18.1.1, SVG Export Plug-In . SVG Version: 6.00 Build 0)  -->

<svg
   xmlns:dc="http://purl.org/dc/elements/1.1/"
   xmlns:cc="http://creativecommons.org/ns#"
   xmlns:rdf="http://www.w3.org/1999/02/22-rdf-syntax-ns#"
   xmlns:svg="http://www.w3.org/2000/svg"
   xmlns="http://www.w3.org/2000/svg"
   xmlns:sodipodi="http://sodipodi.sourceforge.net/DTD/sodipodi-0.dtd"
   xmlns:inkscape="http://www.inkscape.org/namespaces/inkscape"
   version="1.1"
   id="Capa_1"
   x="0px"
   y="0px"
   viewBox="0 0 14.85356 14.379984"
   xml:space="preserve"
   width="24.790392"
   height="24"
   sodipodi:docname="house.svg"
   inkscape:version="0.92.3 (2405546, 2018-03-11)"><metadata
   id="metadata41"><rdf:RDF><cc:Work
       rdf:about=""><dc:format>image/svg+xml</dc:format><dc:type
         rdf:resource="http://purl.org/dc/dcmitype/StillImage" /><dc:title></dc:title></cc:Work></rdf:RDF></metadata><defs
   id="defs39" /><sodipodi:namedview
   pagecolor="#ffffff"
   bordercolor="#666666"
   borderopacity="1"
   objecttolerance="10"
   gridtolerance="10"
   guidetolerance="10"
   inkscape:pageopacity="0"
   inkscape:pageshadow="2"
   inkscape:window-width="1920"
   inkscape:window-height="1017"
   id="namedview37"
   showgrid="false"
   fit-margin-top="0"
   fit-margin-left="0"
   fit-margin-right="0"
   fit-margin-bottom="0"
   inkscape:showpageshadow="false"
   inkscape:zoom="5.2149125"
   inkscape:cx="-1.2011547"
   inkscape:cy="51.908309"
   inkscape:window-x="-8"
   inkscape:window-y="-8"
   inkscape:window-maximized="1"
   inkscape:current-layer="Capa_1" />
<g
   id="g4"
   style="fill:#ffffff;fill-opacity:1"
   transform="matrix(0.04841863,0,0,0.04841863,9.5524978e-6,-0.23677702)">
	<path
   d="m 302.93,149.794 c 5.561,-6.116 5.024,-15.49 -1.199,-20.932 L 164.63,8.898 C 158.407,3.456 148.43,3.57 142.338,9.155 L 4.771,135.258 c -6.092,5.585 -6.391,14.947 -0.662,20.902 l 3.449,3.592 c 5.722,5.955 14.971,6.665 20.645,1.581 l 10.281,-9.207 v 134.792 c 0,8.27 6.701,14.965 14.965,14.965 h 53.624 c 8.264,0 14.965,-6.695 14.965,-14.965 v -94.3 h 68.398 v 94.3 c -0.119,8.264 5.794,14.959 14.058,14.959 h 56.828 c 8.264,0 14.965,-6.695 14.965,-14.965 V 154.024 c 0,0 2.84,2.488 6.343,5.567 3.497,3.073 10.842,0.609 16.403,-5.513 z"
   id="path2"
   style="fill:#ffffff;fill-opacity:1"
   inkscape:connector-curvature="0" />
</g>
<g
   id="g6"
   transform="translate(1.9728971e-4,-287.50301)">
</g>
<g
   id="g8"
   transform="translate(1.9728971e-4,-287.50301)">
</g>
<g
   id="g10"
   transform="translate(1.9728971e-4,-287.50301)">
</g>
<g
   id="g12"
   transform="translate(1.9728971e-4,-287.50301)">
</g>
<g
   id="g14"
   transform="translate(1.9728971e-4,-287.50301)">
</g>
<g
   id="g16"
   transform="translate(1.9728971e-4,-287.50301)">
</g>
<g
   id="g18"
   transform="translate(1.9728971e-4,-287.50301)">
</g>
<g
   id="g20"
   transform="translate(1.9728971e-4,-287.50301)">
</g>
<g
   id="g22"
   transform="translate(1.9728971e-4,-287.50301)">
</g>
<g
   id="g24"
   transform="translate(1.9728971e-4,-287.50301)">
</g>
<g
   id="g26"
   transform="translate(1.9728971e-4,-287.50301)">
</g>
<g
   id="g28"
   transform="translate(1.9728971e-4,-287.50301)">
</g>
<g
   id="g30"
   transform="translate(1.9728971e-4,-287.50301)">
</g>
<g
   id="g32"
   transform="translate(1.9728971e-4,-287.50301)">
</g>
<g
   id="g34"
   transform="translate(1.9728971e-4,-287.50301)">
</g>
</svg>