<?xml version="1.0" encoding="UTF-8" standalone="no"?>
<svg
   xmlns:dc="http://purl.org/dc/elements/1.1/"
   xmlns:cc="http://creativecommons.org/ns#"
   xmlns:rdf="http://www.w3.org/1999/02/22-rdf-syntax-ns#"
   xmlns:svg="http://www.w3.org/2000/svg"
   xmlns="http://www.w3.org/2000/svg"
   xmlns:sodipodi="http://sodipodi.sourceforge.net/DTD/sodipodi-0.dtd"
   xmlns:inkscape="http://www.inkscape.org/namespaces/inkscape"
   enable-background="new 0 0 50 50"
   height="11"
   id="Layer_1"
   version="1.1"
   viewBox="0 0 10.293285 11"
   width="10.293285"
   xml:space="preserve"
   sodipodi:docname="user.svg"
   inkscape:version="0.92.3 (2405546, 2018-03-11)"><metadata
     id="metadata11"><rdf:RDF><cc:Work
         rdf:about=""><dc:format>image/svg+xml</dc:format><dc:type
           rdf:resource="http://purl.org/dc/dcmitype/StillImage" /><dc:title></dc:title></cc:Work></rdf:RDF></metadata><defs
     id="defs9" /><sodipodi:namedview
     pagecolor="#ffffff"
     bordercolor="#666666"
     borderopacity="1"
     objecttolerance="10"
     gridtolerance="10"
     guidetolerance="10"
     inkscape:pageopacity="0"
     inkscape:pageshadow="2"
     inkscape:window-width="1920"
     inkscape:window-height="1017"
     id="namedview7"
     showgrid="false"
     fit-margin-top="0"
     fit-margin-left="0"
     fit-margin-right="0"
     fit-margin-bottom="0"
     inkscape:showpageshadow="false"
     inkscape:zoom="18.88"
     inkscape:cx="8.3174343"
     inkscape:cy="8.2375472"
     inkscape:window-x="-8"
     inkscape:window-y="-8"
     inkscape:window-maximized="1"
     inkscape:current-layer="Layer_1" /><rect
     height="50"
     width="50"
     id="rect2"
     x="-7"
     y="-34"
     style="fill:none" /><path
     d="M 6.482873,7.621635 C 6.443323,7.184984 6.458493,6.880248 6.458493,6.481248 6.656232,6.377502 7.010538,5.716024 7.070401,5.157206 7.225884,5.144476 7.471027,4.992785 7.542809,4.393878 7.581549,4.072349 7.427687,3.891403 7.333964,3.83452 7.586961,3.073629 8.11246,0.719717 6.36206,0.476471 6.18193,0.160087 5.720629,0 5.12118,0 2.7228449,0.04415 2.4335493,1.811076 2.9593196,3.83452 2.8658676,3.8914 2.7120099,4.072349 2.7504741,4.393878 2.8225271,4.992785 3.067399,5.144476 3.222882,5.157206 c 0.05959,0.558547 0.427983,1.220296 0.626265,1.324042 0,0.399 0.0149,0.703736 -0.02465,1.140387 C 3.349922,8.897461 0.1478982,8.539363 0,11 H 10.293285 C 10.145658,8.539363 6.957448,8.897461 6.482873,7.621635 Z"
     id="path4"
     inkscape:connector-curvature="0"
     style="stroke-width:0.27087593;fill:#428bca;fill-opacity:1" /></svg>